<?xml version="1.0" encoding="UTF-8"?>
<svg width="45px" height="20px" viewBox="0 0 45 20" version="1.1" xmlns="http://www.w3.org/2000/svg" xmlns:xlink="http://www.w3.org/1999/xlink">
    <title>9C1F6769-3C05-4474-B0D5-4A69E7E0812C</title>
    <g id="Page-1" stroke="none" stroke-width="1" fill="none" fill-rule="evenodd">
        <g id="02.-Homepage---Donate-popup" transform="translate(-878.000000, -1020.000000)" fill="#000000" fill-rule="nonzero">
            <g id="Modal" transform="translate(565.000000, 740.000000)">
                <g id="Content" transform="translate(40.000000, 40.000000)">
                    <g id="Payment-type" transform="translate(0.000000, 184.000000)">
                        <g id="Cards" transform="translate(0.000000, 36.000000)">
                            <g id="Card-2" transform="translate(200.000000, 0.000000)">
                                <g id="payment-seb" transform="translate(73.000000, 20.000000)">
                                    <path d="M12.2524752,5.11278195 L9.8019802,6.91729324 C8.68811881,5.93984963 7.2029703,5.71428571 6.38613861,5.71428571 C5.56930693,5.71428571 4.67821783,5.93984963 4.6039604,6.54135339 C4.45544555,7.14285714 4.97524753,7.59398496 5.86633664,7.81954888 C6.9059406,8.12030075 7.87128713,8.34586466 9.35643564,8.79699248 C11.509901,9.39849624 12.9950495,10.3759399 12.9950495,12.556391 C12.9950495,15.6390978 10.3217822,17.2180451 6.75742574,17.2180451 C3.19306931,17.2180451 0.742574257,15.3383459 0,14.4360903 L2.52475248,12.481203 C4.30693069,14.0601504 5.56930693,14.2857143 6.60891089,14.2857143 C7.7970297,14.2857143 8.91089109,14.0601504 9.05940594,13.3082706 C9.20792079,12.7819549 8.68811881,12.3308271 7.72277228,12.1052631 C6.53465346,11.8045113 5.56930693,11.5789474 4.52970298,11.3533835 C1.55940594,10.6015038 0.742574257,8.79699248 0.742574257,7.29323309 C0.742574257,5.11278195 2.74752475,2.93233083 6.31188119,2.93233083 C10.0247525,2.93233083 12.2524752,5.11278195 12.2524752,5.11278195 M27.6237624,3.15789474 L16.8564356,3.15789474 L16.8564356,16.8421053 L27.8465346,16.8421053 L27.8465346,13.6842105 L20.6435644,13.6842105 L20.6435644,11.5037594 L25.6188119,11.5037594 L25.6188119,8.4962406 L20.6435644,8.4962406 L20.6435644,6.31578948 L27.6237624,6.31578948 L27.6237624,3.15789474 Z M14,20 L15,20 L15,0 L14,0 L14,20 Z M29.0037129,20 L30.0037129,20 L30.0037129,0 L29.0037129,0 L29.0037129,20 Z M32.0792079,16.8421053 L40.7673268,16.8421053 C43.0693069,16.8421053 45,15.4135339 45,13.1578948 C45,11.3533835 43.8861386,10.2255639 42.2524753,9.69924813 C42.2524753,9.69924813 42.1782179,9.69924813 42.1039604,9.69924813 C42.1782179,9.69924813 42.2524753,9.69924813 42.2524753,9.69924813 C43.1435644,9.32330828 44.1831684,8.34586466 44.1831684,6.69172933 C44.1831684,4.58646616 42.3267326,3.23308271 40.0247525,3.23308271 L32.0792079,3.23308271 L32.0792079,16.8421053 Z M35.8663366,6.0150376 L38.9108911,6.0150376 C39.5792079,6.0150376 40.1732674,6.54135339 40.1732674,7.21804511 C40.1732674,7.89473684 39.5792079,8.42105264 38.9108911,8.42105264 L35.8663366,8.42105264 L35.8663366,6.0150376 Z M39.5792079,13.7593985 L35.8663366,13.7593985 L35.8663366,11.2781955 L39.5792079,11.2781955 C40.2475248,11.2781955 40.7673268,11.8045113 40.7673268,12.556391 C40.7673268,13.2330828 40.2475248,13.7593985 39.5792079,13.7593985" id="logo"></path>
                                </g>
                            </g>
                        </g>
                    </g>
                </g>
            </g>
        </g>
    </g>
</svg>