<?xml version="1.0" encoding="UTF-8"?>
<svg width="72px" height="16px" viewBox="0 0 72 16" version="1.1" xmlns="http://www.w3.org/2000/svg" xmlns:xlink="http://www.w3.org/1999/xlink">
    <title>E07AE2D8-26D0-4E7D-B090-4990930520A2</title>
    <g id="Page-1" stroke="none" stroke-width="1" fill="none" fill-rule="evenodd">
        <g id="02.-Homepage---Donate-popup" transform="translate(-1064.000000, -1022.000000)" fill="#481335" fill-rule="nonzero">
            <g id="Modal" transform="translate(565.000000, 740.000000)">
                <g id="Content" transform="translate(40.000000, 40.000000)">
                    <g id="Payment-type" transform="translate(0.000000, 184.000000)">
                        <g id="Cards" transform="translate(0.000000, 36.000000)">
                            <g id="Card-3" transform="translate(400.000000, 0.000000)">
                                <g id="payment-luminor" transform="translate(59.000000, 22.000000)">
                                    <path d="M68.6620547,15.7341948 L68.6620547,12.0350715 C68.6620547,10.7651131 68.8999484,9.96031373 69.6656685,9.28103373 C70.6395457,8.4023996 72,8.41716653 72,8.41716653 L72,5.67789571 C69.0932369,5.67789571 68.5282396,7.28011075 68.5282396,7.28011075 L67.6956117,5.92893401 L65.9560144,5.92893401 L65.9560144,15.7341948 L68.6620547,15.7341948 L68.6620547,15.7341948 Z M14.4,15.9926165 L14.4,15.9926165 C16.9870935,15.9926165 17.6636035,14.3904015 17.6636035,14.3904015 L18.4962313,15.7415783 L20.2358287,15.7415783 L20.2358287,5.93631749 L17.5297883,5.93631749 L17.5297883,10.8020304 C17.5297883,12.0719889 17.1357769,12.8989387 16.5113061,13.2902631 C16.2065049,13.4896169 15.7158492,13.5782188 15.2549303,13.5782188 C13.6937532,13.5782188 13.2997419,12.6995847 13.2997419,11.2450392 L13.2997419,5.93631749 L10.5788333,5.93631749 L10.5788333,12.0350715 C10.5862674,14.7743424 11.9615901,15.9926165 14.4,15.9926165 M49.348064,5.67789571 C49.3629324,5.67789571 49.3629324,5.67789571 49.348064,5.67789571 C46.7609705,5.67789571 46.0844605,7.28011075 46.0844605,7.28011075 L45.2667011,5.92893401 L43.5271037,5.92893401 L43.5271037,15.7341948 L46.233144,15.7341948 L46.233144,10.8832487 C46.233144,9.61329027 46.6271553,8.78634053 47.2516263,8.39501613 C47.5564275,8.19566227 48.0470831,8.1070604 48.508002,8.1070604 C50.0691792,8.1070604 50.4631905,8.98569453 50.4631905,10.44024 L50.4631905,15.7341948 L53.1692308,15.7341948 L53.1692308,9.63544067 C53.1617965,6.89616983 51.7939081,5.67789571 49.348064,5.67789571 M34.3533299,5.67789571 C31.8554465,5.67789571 31.1343315,7.14720812 31.1194631,7.16197508 L31.0674239,7.28011075 L31.0005163,7.17674204 C30.3240061,6.16520535 29.3649975,5.68527919 27.7666495,5.68527919 C25.2687661,5.68527919 24.5476511,7.1545916 24.5327827,7.16935856 L24.4807435,7.28749423 L23.6481156,5.93631749 L21.9085183,5.93631749 L21.9085183,7.28749423 L21.9085183,9.31795107 L21.9085183,15.7415783 L24.6145585,15.7415783 L24.6145585,10.8906323 C24.6145585,8.993078 25.2762003,8.11444387 26.6738255,8.11444387 C27.9153329,8.11444387 28.4951988,8.8454084 28.4951988,10.4180895 L28.4951988,15.7415783 L31.2012391,15.7415783 L31.2012391,10.8241809 C31.2012391,8.97831107 31.8480124,8.1070604 33.2233351,8.1070604 C34.0262261,8.1070604 35.0818792,8.34333173 35.0818792,10.44024 L35.0818792,15.7341948 L37.7882217,15.7341948 L37.7882217,9.63544067 C37.8027879,6.89616983 36.7322664,5.67789571 34.3533299,5.67789571 M2.81011875,12.935856 L2.81011875,1.99353945 L0,1.99353945 L0,15.7341948 L9.64956117,15.7341948 L9.64956117,12.9432395 L2.81011875,12.9432395 L2.81011875,12.935856 Z M38.568508,1.99353945 L40.5757357,3.98707891 L42.5829633,1.99353945 L40.5757357,0 L38.568508,1.99353945 Z M39.1706763,5.92155053 L41.9807951,5.92155053 L41.9807951,15.7268112 L39.1706763,15.7268112 L39.1706763,5.92155053 Z M59.4882808,5.67789571 C57.8899329,5.67789571 56.5294785,6.20212275 55.5407331,7.19889248 C54.6188952,8.12921093 54.1133712,9.42870333 54.1133712,10.8315644 C54.1133712,12.2344255 54.6114611,13.5339179 55.5407331,14.4642363 C56.5146103,15.461006 57.8899329,16 59.4882808,16 C62.65524,16 64.8706247,13.8735579 64.8706247,10.8315644 C64.8706247,7.78957084 62.65524,5.67789571 59.4882808,5.67789571 M59.4734125,13.7111213 C57.9271037,13.7111213 56.8194115,12.5076143 56.8194115,10.8389479 C56.8194115,9.19981547 57.9568405,7.96677435 59.4734125,7.96677435 C61.0197212,7.96677435 62.1645844,9.19981547 62.1645844,10.8389479 C62.1645844,12.4928472 61.0345896,13.7111213 59.4734125,13.7111213" id="logo"></path>
                                </g>
                            </g>
                        </g>
                    </g>
                </g>
            </g>
        </g>
    </g>
</svg>