<?xml version="1.0" encoding="UTF-8"?>
<svg width="72px" height="22px" viewBox="0 0 72 22" version="1.1" xmlns="http://www.w3.org/2000/svg" xmlns:xlink="http://www.w3.org/1999/xlink">
    <title>CF44004A-CEA3-4404-A271-435CFD883A79</title>
    <g id="Page-1" stroke="none" stroke-width="1" fill="none" fill-rule="evenodd">
        <g id="02.-Homepage---Donate-popup" transform="translate(-664.000000, -1089.000000)" fill-rule="nonzero">
            <g id="Modal" transform="translate(565.000000, 740.000000)">
                <g id="Content" transform="translate(40.000000, 40.000000)">
                    <g id="Payment-type" transform="translate(0.000000, 184.000000)">
                        <g id="Cards" transform="translate(0.000000, 36.000000)">
                            <g id="Card-4" transform="translate(0.000000, 70.000000)">
                                <g id="payment-citadele" transform="translate(59.000000, 19.000000)">
                                    <rect id="path" fill="#E3002C" x="0" y="0" width="72" height="22"></rect>
                                    <path d="M23.6336005,11.1397591 C23.6336005,9.48192771 24.4411197,8.57590361 25.672094,8.57590361 C26.1250927,8.57590361 26.4993089,8.71084337 26.9720031,8.94216868 C27.1394156,9.01927711 27.2772846,8.99036145 27.4939362,8.47951807 L27.6515009,8.12289157 C27.8090657,7.69879518 27.8189134,7.51566265 27.6219575,7.42891566 C27.0606332,7.09156626 26.1841794,6.89879518 25.4160514,6.89879518 C23.2495365,6.89879518 21.6148024,8.58554217 21.6148024,11.1397591 C21.6148024,13.6939759 23.2593842,15.4 25.4160514,15.4 C26.1841794,15.4 27.0803287,15.1879518 27.6416531,14.860241 C27.8287612,14.773494 27.8189134,14.5903615 27.6613487,14.1662651 L27.503784,13.7903614 C27.2772846,13.2698795 27.1492633,13.2409639 26.9720031,13.3277109 C26.5091566,13.5590362 26.1152448,13.6939759 25.6523985,13.6939759 C24.4411197,13.6939759 23.6336005,12.7975904 23.6336005,11.1397591 M49.4348237,15.0048193 C49.4348237,15.2361446 49.3461936,15.293976 48.7060869,15.293976 L48.6371523,15.293976 C47.9675023,15.293976 47.8690243,15.2554217 47.8099376,15.0915663 C47.7803942,15.0048193 47.7508508,14.860241 47.7311552,14.7542168 C47.3766346,15.1783133 46.9433316,15.4 46.2835293,15.4 C44.6881865,15.4 43.7231026,14.2337349 43.7231026,12.373494 C43.7231026,10.3590361 44.7866644,9.16385543 46.3820072,9.16385543 C46.825158,9.16385543 47.2387655,9.29879518 47.5538948,9.54939759 L47.5538948,6.9373494 C47.5538948,6.75421687 47.5735905,6.68674699 48.459892,6.68674699 L48.5189788,6.68674699 C49.3461936,6.68674699 49.4348237,6.75421687 49.4348237,6.9373494 L49.4348237,15.0048193 L49.4348237,15.0048193 Z M47.5538948,11.0240964 C47.3175477,10.7927711 47.0319617,10.6578313 46.6971367,10.6578313 C45.9880954,10.6578313 45.6532704,11.2650603 45.6532704,12.3831325 C45.6532704,13.0192772 45.7911395,13.4337349 45.9880954,13.6457831 C46.1653558,13.8578313 46.4410941,13.9349398 46.6971367,13.9349398 C47.0319617,13.9349398 47.2880044,13.8578313 47.406178,13.7036144 C47.5046559,13.5879518 47.5538948,13.4144579 47.5538948,13.0096385 L47.5538948,11.0240964 L47.5538948,11.0240964 Z M59.0265762,15.053012 C59.0265762,15.226506 58.9477938,15.293976 58.1107312,15.293976 L58.0516445,15.293976 C57.165343,15.293976 57.1357996,15.2168675 57.1357996,15.053012 L57.1357996,6.94698795 C57.1357996,6.76385542 57.1554952,6.69638554 58.0516445,6.69638554 L58.1107312,6.69638554 C58.9379461,6.69638554 59.0265762,6.76385542 59.0265762,6.94698795 L59.0265762,15.053012 L59.0265762,15.053012 Z M52.4088579,12.8939759 C52.5171836,13.626506 52.9800301,13.9831326 53.698919,13.9831326 C54.2700912,13.9831326 54.7920243,13.8578314 55.4025876,13.5879519 C55.5306089,13.5397591 55.6487825,13.5879519 55.7768038,14.0024096 L55.8752818,14.2337349 C56.0131509,14.6578313 56.0033031,14.7542168 55.8555862,14.8313253 C55.1268493,15.2361446 54.3685691,15.4 53.5216587,15.4 C51.6505776,15.4 50.47869,14.2722891 50.47869,12.3445783 C50.47869,10.4746988 51.5520997,9.17349398 53.413333,9.17349398 C55.2351751,9.17349398 56.1805634,10.4554217 56.1805634,12.2385542 C56.1805634,12.826506 56.1313245,12.8939759 55.914673,12.8939759 L52.4088579,12.8939759 L52.4088579,12.8939759 Z M54.2996345,11.746988 C54.2700912,11.1301204 54.0238962,10.5903614 53.3936374,10.5903614 C52.8520086,10.5903614 52.4679447,10.9855422 52.3891623,11.746988 L54.2996345,11.746988 L54.2996345,11.746988 Z M61.9612192,12.8939759 C62.0695449,13.626506 62.5225435,13.9831326 63.2512803,13.9831326 C63.8126046,13.9831326 64.3443856,13.8578314 64.9549489,13.5879519 C65.0829702,13.5397591 65.191296,13.5879519 65.3291651,14.0024096 L65.4177952,14.2337349 C65.5556644,14.6578313 65.5458167,14.7542168 65.4079475,14.8313253 C64.6792106,15.2361446 63.9110826,15.4 63.0641723,15.4 C61.1930911,15.4 60.0212035,14.2722891 60.0212035,12.3445783 C60.0212035,10.4746988 61.0946132,9.17349398 62.9459987,9.17349398 C64.7776886,9.17349398 65.7230769,10.4554217 65.7230769,12.2385542 C65.7230769,12.826506 65.6639901,12.8939759 65.4571864,12.8939759 L61.9612192,12.8939759 L61.9612192,12.8939759 Z M63.8519958,11.746988 C63.8224525,11.1301204 63.556562,10.5903614 62.9459987,10.5903614 C62.4043699,10.5903614 62.0104581,10.9855422 61.9415236,11.746988 L63.8519958,11.746988 L63.8519958,11.746988 Z M40.719525,11.0722891 C40.5225691,10.8216867 40.2271353,10.6771084 39.9021581,10.6674699 C39.2029646,10.6674699 38.8582918,11.2746988 38.8582918,12.3638555 C38.8582918,13.2891567 39.1044867,13.9638554 39.8824624,13.9638554 C40.1778964,13.9638554 40.3847,13.8963856 40.5324169,13.7421687 C40.6702861,13.5975904 40.7293728,13.4048192 40.7293728,12.9710844 C40.719525,12.9807229 40.719525,11.0722891 40.719525,11.0722891 Z M42.6201496,15.0048193 C42.6201496,15.2361446 42.5315193,15.293976 41.8914126,15.293976 L41.8027825,15.293976 C41.1331324,15.293976 41.0346545,15.2554217 40.9755678,15.0915663 C40.9460244,15.0048193 40.9164809,14.860241 40.8967854,14.7542168 C40.5422648,15.1783133 40.1089618,15.4 39.4491594,15.4 C37.9129034,15.4 36.9379717,14.2626506 36.9379717,12.4024097 C36.9379717,10.3301205 38.1492505,9.17349398 39.5870286,9.17349398 C40.1778964,9.17349398 40.6801339,9.42409639 40.9558721,9.75180723 L40.9854155,9.49156626 C41.0051111,9.36626506 41.0346545,9.27951807 41.7338479,9.27951807 L41.8126303,9.27951807 C42.5315193,9.27951807 42.6299973,9.32771084 42.6299973,9.52048193 L42.6201496,15.0048193 L42.6201496,15.0048193 Z M33.8063729,7.54457832 C34.5154141,7.54457832 34.5548053,7.55421687 34.5548053,7.77590362 L34.5548053,9.28915662 L35.7759319,9.28915662 C35.9433444,9.28915662 35.9925833,9.31807229 35.9925833,9.88674699 L35.9925833,9.96385542 C35.9925833,10.5325301 35.9433444,10.5614458 35.7759319,10.5614458 L34.5548053,10.5614458 L34.5548053,13.2795181 C34.5548053,13.7421687 34.6335877,13.9734939 35.0570428,13.9734939 C35.2835422,13.9734939 35.4706502,13.9253012 35.6577583,13.8674699 C35.8547143,13.7807229 35.9334966,13.8867469 36.0713657,14.3590361 L36.1009091,14.4746988 C36.2486261,14.9951808 36.1993871,15.0433735 36.012279,15.1301205 C35.6282149,15.3036145 35.1259774,15.4 34.6532832,15.4 C33.1465705,15.4 32.7231154,14.6578313 32.7231154,13.3662651 L32.7231154,10.5710843 L32.0140741,10.5710843 C31.8368138,10.5710843 31.7974227,10.5421687 31.7974227,9.97349398 L31.7974227,9.89638554 C31.7974227,9.32771084 31.8368138,9.29879518 32.0140741,9.29879518 L32.8117455,9.29879518 C32.8905279,8.81686747 33.0480926,8.13253012 33.1367228,7.78554217 C33.2056574,7.58313254 33.2352008,7.54457832 33.8063729,7.54457832 M29.8672548,9.28915662 C30.6944695,9.28915662 30.7634041,9.36626506 30.7634041,9.53975903 L30.7634041,15.0433735 C30.7634041,15.226506 30.6846218,15.2843373 29.8672548,15.2843373 L29.8180159,15.2843373 C28.9120187,15.2843373 28.8824753,15.226506 28.8824753,15.0433735 L28.8824753,9.53975903 C28.8824753,9.35662651 28.9021709,9.28915662 29.8180159,9.28915662 L29.8672548,9.28915662 L29.8672548,9.28915662 Z M29.8180159,6.6 C30.4088835,6.6 30.8421865,7.05301204 30.8421865,7.57349397 C30.8421865,8.08433735 30.4088835,8.5373494 29.8180159,8.5373494 C29.2271481,8.5373494 28.7839973,8.08433735 28.7839973,7.57349397 C28.7938451,7.06265061 29.2271481,6.6 29.8180159,6.6 Z M7.07945684,14.4265061 C6.68554502,14.4265061 6.64615385,14.2915663 6.64615385,13.2987952 L6.64615385,13.1253012 C6.64615385,12.1228916 6.68554502,11.9879518 7.07945684,11.9879518 L16.1886673,11.9879518 C16.5825792,11.9879518 16.6219703,12.1325301 16.6219703,13.1253012 L16.6219703,13.2987952 C16.6219703,14.3012048 16.5825792,14.4265061 16.1886673,14.4265061 L7.07945684,14.4265061 L7.07945684,14.4265061 Z M16.1886673,7.58313254 C16.5825792,7.58313254 16.6219703,7.71807229 16.6219703,8.72048192 L16.6219703,8.88433735 C16.6219703,9.89638554 16.5825792,10.0313253 16.1886673,10.0313253 L7.07945684,10.0313253 C6.68554502,10.0313253 6.64615385,9.89638554 6.64615385,8.88433735 L6.64615385,8.72048192 C6.64615385,7.71807229 6.68554502,7.58313254 7.07945684,7.58313254 L16.1886673,7.58313254" id="path" fill="#FFFFFF"></path>
                                </g>
                            </g>
                        </g>
                    </g>
                </g>
            </g>
        </g>
    </g>
</svg>