<?xml version="1.0" encoding="UTF-8"?>
<svg width="74px" height="18px" viewBox="0 0 74 18" version="1.1" xmlns="http://www.w3.org/2000/svg" xmlns:xlink="http://www.w3.org/1999/xlink">
    <title>D1C7D0C2-8C42-4143-8E80-55E7FAEDD8FA</title>
    <g id="Page-1" stroke="none" stroke-width="1" fill="none" fill-rule="evenodd">
        <g id="02.-Homepage---Donate-popup" transform="translate(-863.000000, -1091.000000)">
            <g id="Modal" transform="translate(565.000000, 740.000000)">
                <g id="Content" transform="translate(40.000000, 40.000000)">
                    <g id="Payment-type" transform="translate(0.000000, 184.000000)">
                        <g id="Cards" transform="translate(0.000000, 36.000000)">
                            <g id="Card-5" transform="translate(200.000000, 70.000000)">
                                <g id="payment-paypal" transform="translate(58.000000, 21.000000)">
                                    <g id="Group-2" transform="translate(20.303634, 3.144275)">
                                        <path d="M6.4435862,0.000503693653 L2.26703242,0.000503693653 C1.9812319,0.000503693653 1.73815178,0.206514397 1.69360485,0.486568068 L0.00437307004,11.1190374 C-0.0291639698,11.3290776 0.134462284,11.5179627 0.34882536,11.5179627 L2.3427825,11.5179627 C2.62858302,11.5179627 2.87166314,11.311952 2.91621007,11.0313947 L3.37182673,8.16336302 C3.41576482,7.88280566 3.65945378,7.67679496 3.94464546,7.67679496 L5.26679633,7.67679496 C8.01805128,7.67679496 9.60575868,6.35510281 10.0206337,3.73589582 C10.2074467,2.58999276 10.0285486,1.6898922 9.48789704,1.05926775 C8.89442842,0.366688979 7.84138566,0.000503693653 6.4435862,0.000503693653 Z M6.9254338,3.88398175 C6.6971181,5.37138911 5.55203875,5.37138911 4.44480906,5.37138911 L3.81455625,5.37138911 L4.25672766,2.59301492 C4.2829586,2.42528494 4.42953728,2.3013763 4.60052037,2.3013763 L4.88941584,2.3013763 C5.64361871,2.3013763 6.35515191,2.3013763 6.72284167,2.72800482 C6.94187253,2.98287381 7.00909882,3.36114774 6.9254338,3.88398175 Z M18.9283454,3.83613086 L16.9282999,3.83613086 C16.7578749,3.83613086 16.6106366,3.96003949 16.584355,4.12776948 L16.4958699,4.68334358 L16.3559885,4.48186612 C15.9230512,3.85778968 14.957631,3.64926051 13.9939357,3.64926051 C11.7835861,3.64926051 9.89602404,5.31144956 9.52833429,7.64254379 C9.33731015,8.80506874 9.60885362,9.91722432 10.2733031,10.6924089 C10.882906,11.4056391 11.7550212,11.7028183 12.7925385,11.7028183 C14.5732488,11.7028183 15.5609933,10.5659817 15.5609933,10.5659817 L15.4716964,11.1175263 C15.4380579,11.3285739 15.6016842,11.5179627 15.8147788,11.5179627 L17.6164434,11.5179627 C17.903005,11.5179627 18.1446645,11.3114484 18.189871,11.030891 L19.2708697,4.23505623 C19.3050664,4.02602336 19.1419982,3.83613086 18.9283454,3.83613086 Z M16.140357,7.70046856 C15.9473542,8.83478666 15.0404334,9.59637146 13.883989,9.59637146 C13.3032046,9.59637146 12.8388612,9.41151589 12.5409853,9.06094511 C12.2453926,8.71339649 12.1329091,8.21776194 12.2270259,7.66621739 C12.4072938,6.54146946 13.3294863,5.75520367 14.4684265,5.75520367 C15.0361716,5.75520367 15.4979781,5.94207402 15.8020946,6.29566696 C16.1067185,6.65278576 16.2276751,7.15144248 16.140357,7.70046856 Z M27.5701455,3.83562716 L29.5803384,3.83562716 C29.8619278,3.83562716 30.0258077,4.14942831 29.8659868,4.37860892 L23.1814103,13.9573511 C23.0733409,14.1124888 22.8947473,14.2051684 22.7044842,14.2051684 L20.6968281,14.2051684 C20.4143255,14.2051684 20.2492786,13.8888488 20.4129049,13.6591645 L22.4944338,10.7422745 L20.280634,4.292981 C20.2040721,4.06883732 20.3707933,3.83562716 20.6110829,3.83562716 L22.58576,3.83562716 C22.8424884,3.83562716 23.0687746,4.00285346 23.1428504,4.24664118 L24.3179152,8.14220789 L27.0901752,4.08848138 C27.1982446,3.93032157 27.3788677,3.83562716 27.5701455,3.83562716 Z" id="path" fill="#253B80"></path>
                                        <path d="M49.3616109,11.1190374 L51.0760081,0.292142318 C51.1018839,0.123908638 51.2485133,0.000503693652 51.4189891,0 L53.3490178,0 C53.5621125,0 53.725485,0.189388813 53.6919987,0.399429066 L52.0014478,11.0313947 C51.9573068,11.311952 51.7142774,11.5179627 51.4281217,11.5179627 L49.7045918,11.5179627 C49.4914972,11.5179627 49.3281246,11.3290776 49.3616109,11.1190374 Z M36.2344727,0.000503693652 L32.0573101,0.000503693652 C31.7721692,0.000503693652 31.5291398,0.206514397 31.4844914,0.486568068 L29.7954626,11.1190374 C29.7614689,11.3290776 29.9253488,11.5179627 30.1384435,11.5179627 L32.2820743,11.5179627 C32.4809626,11.5179627 32.6514383,11.3739064 32.6828952,11.1774658 L33.1618508,8.16336302 C33.2059918,7.88280566 33.4495285,7.67679496 33.7346695,7.67679496 L35.0563637,7.67679496 C37.808329,7.67679496 39.3953768,6.35510281 39.8109114,3.73589582 C39.9981303,2.58999276 39.8180145,1.6898922 39.2776674,1.05876406 C38.6845539,0.366688979 37.6322722,0.000503693652 36.2344727,0.000503693652 Z M36.7164726,3.88347806 C36.4886642,5.37138911 35.3435341,5.37138911 34.2354419,5.37138911 L33.605798,5.37138911 L34.0487304,2.59301492 C34.0751136,2.42528494 34.2202209,2.3013763 34.3917113,2.3013763 L34.6809112,2.3013763 C35.4343531,2.3013763 36.146698,2.3013763 36.5140326,2.72800482 C36.7332157,2.98287381 36.8001883,3.36114774 36.7164726,3.88347806 Z M48.718268,3.83613086 L46.7197445,3.83613086 C46.5477467,3.83613086 46.402132,3.9595358 46.3762563,4.12776948 L46.2874668,4.68283989 L46.1474332,4.48186612 C45.7141407,3.85778968 44.7496337,3.64926051 43.7856341,3.64926051 C41.5755381,3.64926051 39.6886356,5.31144956 39.3207937,7.64254379 C39.1300232,8.80506874 39.4004505,9.91722432 40.0651029,10.6924089 C40.6759742,11.4056391 41.5466181,11.7023146 42.5841861,11.7023146 C44.3650486,11.7023146 45.3523872,10.5654781 45.3523872,10.5654781 L45.2635977,11.1175263 C45.2301114,11.3285739 45.393484,11.5174591 45.6081008,11.5174591 L47.4087506,11.5174591 C47.6938915,11.5174591 47.9369209,11.3114484 47.9815693,11.030891 L49.0632784,4.23505623 C49.0962573,4.02602336 48.9328848,3.83613086 48.718268,3.83613086 Z M45.9302796,7.70046856 C45.7384944,8.83478666 44.8303053,9.59637146 43.6740131,9.59637146 C43.0940912,9.59637146 42.6288345,9.41151589 42.3310094,9.06094511 C42.0352137,8.7128928 41.9241001,8.21776194 42.0169484,7.66621739 C42.1980789,6.54146946 43.1194596,5.75520367 44.2585013,5.75520367 C44.8262463,5.75520367 45.2879514,5.94207402 45.5923723,6.29566696 C45.897808,6.65278576 46.019069,7.15144248 45.9302796,7.70046856 Z" id="path" fill="#179BD7"></path>
                                    </g>
                                    <path d="M4.36575589,17.3895348 L4.67998419,15.4080814 L3.98011206,15.3919289 L0.637617162,15.3919289 L2.96039154,0.77035629 C2.96750204,0.72621439 2.99100706,0.68506255 3.02525546,0.655840119 C3.05950387,0.626617689 3.10343994,0.610496031 3.14908377,0.610496031 L8.78482428,0.610496031 C10.655911,0.610496031 11.9469795,0.997015079 12.6210799,1.75991163 C12.9371712,2.11782476 13.1383767,2.49179789 13.2358744,2.90337794 C13.3380297,3.33524108 13.3398927,3.85119577 13.2399109,4.48046444 L13.2327694,4.52642503 L13.2327694,4.92962059 L13.5488607,5.10739038 C13.8149612,5.24755324 14.0264132,5.40799918 14.1888059,5.59171826 C14.4592534,5.89772149 14.6340662,6.28661409 14.7079657,6.74769966 C14.7840388,7.22191682 14.7588881,7.78617483 14.6340662,8.42499936 C14.4896826,9.15987567 14.2564954,9.79990239 13.9419566,10.3236251 C13.652258,10.8061651 13.2833813,11.2063397 12.8452625,11.5165969 C12.427016,11.8112256 11.9302123,12.0349559 11.3685137,12.1781705 C10.8238927,12.3187958 10.2035092,12.389879 9.52257769,12.389879 L9.08414848,12.389879 C8.77054118,12.389879 8.46562794,12.5019908 8.22685169,12.7030646 C7.98714394,12.9082381 7.82816677,13.1884713 7.77972842,13.4951219 L7.74650467,13.673539 L7.1913266,17.1658044 L7.16617592,17.2940687 C7.15965537,17.3347581 7.14816679,17.3550104 7.13139966,17.3687585 C7.11649555,17.3811195 7.09476039,17.3895348 7.07364624,17.3895348 L4.36575589,17.3895348 Z" id="path" fill="#253B80" fill-rule="nonzero"></path>
                                    <path d="M13.8481849,4.57315626 C13.8314178,4.67993527 13.8121666,4.78908783 13.7904315,4.90123045 C13.047089,8.68948085 10.5046964,9.99817103 7.25684258,9.99817103 L5.60341796,9.99817103 C5.20628555,9.99817103 4.8718746,10.2844769 4.80977415,10.6733695 L3.96334494,16.0035963 L3.72363718,17.5144083 C3.68327189,17.7697346 3.88168284,18 4.14095224,18 L7.07395674,18 C7.42109829,18 7.71607545,17.7494824 7.77072385,17.4095096 L7.79960056,17.2615171 L8.35167361,13.7828149 L8.38738137,13.5920368 C8.44109826,13.2508618 8.73669643,13.0003442 9.08414848,13.0003442 L9.52257769,13.0003442 C12.363984,13.0003442 14.5884223,11.85509 15.2386141,8.54096432 C15.5099931,7.15653626 15.3693355,6.00055486 14.6508333,5.18753628 C14.4334817,4.94238229 14.1636552,4.73899663 13.8481849,4.57315626 Z" id="path" fill="#179BD7" fill-rule="nonzero"></path>
                                    <path d="M13.0703767,4.26551928 C12.9567329,4.23272111 12.8396735,4.20288217 12.7195091,4.17603329 C12.5987237,4.14980092 12.4748333,4.12655861 12.3475274,4.10627553 C11.9016461,4.03469907 11.413226,4.00069871 10.8900297,4.00069871 L6.47251383,4.00069871 C6.36383804,4.00069871 6.26044078,4.02514321 6.1679111,4.06928511 C5.96422161,4.16650826 5.813007,4.35799532 5.77636773,4.59239128 L4.83647734,10.5011482 L4.80946364,10.6735236 C4.8712536,10.284631 5.20597505,9.99829433 5.60310746,9.99829433 L7.25653208,9.99829433 C10.5040754,9.99829433 13.047089,8.68904929 13.790121,4.90138457 C13.8124771,4.78924195 13.8311073,4.68008939 13.8478744,4.57331039 C13.65971,4.47429937 13.4560205,4.38959131 13.2368059,4.31739834 C13.1827785,4.29951964 13.1268881,4.28222662 13.0703767,4.26551928 Z" id="path" fill="#222D65" fill-rule="nonzero"></path>
                                    <path d="M5.77636773,4.59232963 C5.813007,4.35790285 5.96453211,4.16644661 6.1682216,4.06980914 C6.26137229,4.02566724 6.36414854,4.00122274 6.47251383,4.00122274 L10.8900297,4.00122274 C11.4135366,4.00122274 11.9019566,4.03519227 12.3475274,4.10679956 C12.4751438,4.12708264 12.5990342,4.15032495 12.7195091,4.17655732 C12.839984,4.20343703 12.9570434,4.23324514 13.0706872,4.26604331 C13.1268881,4.28275065 13.1827785,4.30004367 13.2374269,4.31733669 C13.4566415,4.38952966 13.6606415,4.4748234 13.8484954,4.57324873 C14.0698835,3.1732847 13.8469429,2.22010326 13.0843493,1.3569935 C12.2438196,0.406802127 10.7267055,0 8.78544529,0 L3.14948742,0 C2.75291392,0 2.41477694,0.286305839 2.35335959,0.675814945 L0.0060244828,15.447692 C-0.040333507,15.7399471 0.186767858,16.0036888 0.483545933,16.0036888 L3.96303444,16.0036888 L4.83678784,10.5010866 L5.77636773,4.59232963 Z" id="path" fill="#253B80" fill-rule="nonzero"></path>
                                </g>
                            </g>
                        </g>
                    </g>
                </g>
            </g>
        </g>
    </g>
</svg>