<?xml version="1.0" encoding="UTF-8"?>
<svg width="100px" height="20px" viewBox="0 0 100 20" version="1.1" xmlns="http://www.w3.org/2000/svg" xmlns:xlink="http://www.w3.org/1999/xlink">
    <title>31181F15-3A65-4481-A2DF-470BA3B6FB75</title>
    <g id="Page-1" stroke="none" stroke-width="1" fill="none" fill-rule="evenodd">
        <g id="02.-Homepage---Donate-popup" transform="translate(-1050.000000, -1090.000000)" fill-rule="nonzero">
            <g id="Modal" transform="translate(565.000000, 740.000000)">
                <g id="Content" transform="translate(40.000000, 40.000000)">
                    <g id="Payment-type" transform="translate(0.000000, 184.000000)">
                        <g id="Cards" transform="translate(0.000000, 36.000000)">
                            <g id="Card-6" transform="translate(400.000000, 70.000000)">
                                <g id="payment-card" transform="translate(45.000000, 20.000000)">
                                    <g id="payment-visa" transform="translate(70.000000, 0.000000)">
                                        <path d="M27.9497858,0 C29.0820878,0 30,0.898212381 30,2.00001277 L30,17.9999872 C30,19.1045638 29.0857791,20 27.9497858,20 L2.05021425,20 C0.917912186,20 0,19.1017876 0,17.9999872 L0,2.00001277 C0,0.895436216 0.91422094,0 2.05021425,0 L27.9497858,0 Z" id="path" fill="#FFFFFF"></path>
                                        <path d="M17.578801,7.26666667 C18.0725996,7.26666667 18.4788822,7.35752099 18.7624304,7.45305737 L18.8629391,7.48893467 L18.6687022,8.63616829 L18.5403186,8.57512574 C18.2758988,8.46784511 17.9365633,8.36502597 17.467938,8.37232673 C16.9070779,8.37232673 16.6474913,8.60757326 16.6474913,8.82761011 C16.6452605,8.99924821 16.7915776,9.13040309 17.0479858,9.27611883 L17.2348124,9.37602398 L17.4517264,9.48386777 C18.2783154,9.86158078 18.6600426,10.3199064 18.6547059,10.9220165 C18.643529,12.0207811 17.6657998,12.730476 16.1597343,12.730476 C15.5756232,12.7244842 15.0111515,12.6180984 14.6618799,12.4878066 L14.5637499,12.4480782 L14.7648339,11.2631242 L14.9495049,11.3472858 C15.4200434,11.5449134 15.7246397,11.6251202 16.2980865,11.6251202 C16.7099209,11.6251202 17.1517619,11.4629825 17.1552862,11.1081858 C17.1577172,10.8930378 16.9962282,10.7349822 16.5266698,10.5058266 L16.4127758,10.4516239 C15.8693356,10.1984294 15.1493805,9.7740726 15.1573353,9.01347519 C15.1657935,7.9845748 16.1631578,7.26666667 17.578801,7.26666667 Z M22.5369655,7.36371623 L23.6965463,12.6537266 L22.3670964,12.6537266 L22.1927968,11.8604784 L20.3578679,11.8582476 L20.0561916,12.6537266 L18.5517372,12.6537266 L20.6795821,7.80267482 C20.8176658,7.48664648 21.0448439,7.38115615 21.3459149,7.36576913 L21.4298458,7.36371623 L22.5369655,7.36371623 Z M14.5628538,7.35861622 L13.6664845,12.6520737 L12.2343277,12.6520737 L13.1300928,7.35861622 L14.5628538,7.35861622 Z M12.5502823,7.36247891 L10.2946579,12.6456957 L8.77872455,12.6474192 L7.49609687,8.0181281 C8.3552209,8.45127846 9.12866076,9.29252066 9.43190053,10.0970667 L9.4804542,10.2385739 L9.62988264,10.9721989 L11.0326371,7.36247891 L12.5502823,7.36247891 Z M21.6279089,9.24700871 L21.5310423,8.79060958 L21.2882282,9.43290028 L20.7702058,10.7755043 L21.9594911,10.7755043 L21.6279089,9.24700871 Z" id="path" fill="#00579F"></path>
                                        <path d="M6.01832613,7.35752067 L6,7.46944914 C7.79747108,7.91479409 8.98675632,8.99110468 9.4804542,10.2841613 L8.97809672,7.81172912 C8.89129934,7.47109846 8.63976818,7.36937317 8.32862675,7.35752067 L6.01832613,7.35752067 Z" id="path" fill="#F9A51A"></path>
                                        <path d="M2.04545455,0 L27.9545455,0 C29.0842188,0 30,0.8954305 30,2 L30,4 L0,4 L0,2 C0,0.8954305 0.915781194,0 2.04545455,0 Z" id="path" fill="#00579F"></path>
                                        <path d="M2,20 L28,20 C29.1045695,20 30,19.1045695 30,18 L30,16 L0,16 L0,18 C0,19.1045695 0.8954305,20 2,20 Z" id="path" fill="#F9A51A"></path>
                                    </g>
                                    <g id="payment-maestro" transform="translate(35.000000, 0.000000)">
                                        <path d="M27.9497858,0 C29.0820878,0 30,0.898212381 30,2.00001277 L30,17.9999872 C30,19.1045638 29.0857791,20 27.9497858,20 L2.05021425,20 C0.917912186,20 0,19.1017876 0,17.9999872 L0,2.00001277 C0,0.895436216 0.91422094,0 2.05021425,0 L27.9497858,0 Z" id="path" fill="#FFFFFF"></path>
                                        <circle id="path" fill="#087DCB" cx="11.3333333" cy="10" r="4.66666667"></circle>
                                        <circle id="path" fill="#F1173E" cx="18" cy="10" r="4.66666667"></circle>
                                    </g>
                                    <g id="payment-mastercard">
                                        <path d="M27.9497858,0 C29.0820878,0 30,0.898212381 30,2.00001277 L30,17.9999872 C30,19.1045638 29.0857791,20 27.9497858,20 L2.05021425,20 C0.917912186,20 0,19.1017876 0,17.9999872 L0,2.00001277 C0,0.895436216 0.91422094,0 2.05021425,0 L27.9497858,0 Z" id="path" fill="#FFFFFF"></path>
                                        <circle id="path" fill="#F2C57C" cx="11.3333333" cy="10" r="4.66666667"></circle>
                                        <circle id="path" fill="#D0091B" cx="18" cy="10" r="4.66666667"></circle>
                                    </g>
                                </g>
                            </g>
                        </g>
                    </g>
                </g>
            </g>
        </g>
    </g>
</svg>