<?xml version="1.0" encoding="UTF-8"?>
<svg width="16px" height="16px" viewBox="0 0 16 16" version="1.1" xmlns="http://www.w3.org/2000/svg" xmlns:xlink="http://www.w3.org/1999/xlink">
    <title>3CD9D385-4517-409E-92D0-E8B0F356FAA9</title>
    <g id="Page-1" stroke="none" stroke-width="1" fill="none" fill-rule="evenodd">
        <g id="02.-Homepage---Donate-popup" transform="translate(-605.000000, -1578.000000)" fill="#FF5500">
            <g id="Modal" transform="translate(565.000000, 740.000000)">
                <g id="Content" transform="translate(40.000000, 40.000000)">
                    <g id="Link" transform="translate(0.000000, 794.000000)">
                        <g id="Icon" transform="translate(0.000000, 4.000000)">
                            <path d="M8,1 C8.55228475,1 9,1.44771525 9,2 L8.999,7 L14,7 C14.5522847,7 15,7.44771525 15,8 C15,8.55228475 14.5522847,9 14,9 L8.999,9 L9,14 C9,14.5522847 8.55228475,15 8,15 C7.44771525,15 7,14.5522847 7,14 L6.999,9 L2,9 C1.44771525,9 1,8.55228475 1,8 C1,7.44771525 1.44771525,7 2,7 L6.999,7 L7,2 C7,1.44771525 7.44771525,1 8,1 Z" id="icon"></path>
                        </g>
                    </g>
                </g>
            </g>
        </g>
    </g>
</svg>