<?xml version="1.0" encoding="UTF-8"?>
<svg width="18px" height="18px" viewBox="0 0 18 18" version="1.1" xmlns="http://www.w3.org/2000/svg" xmlns:xlink="http://www.w3.org/1999/xlink">
    <title>39C88141-6F06-46B8-9E92-E0BDD9F59E41</title>
    <g id="Page-1" stroke="none" stroke-width="1" fill="none" fill-rule="evenodd" stroke-linecap="round">
        <g id="01.-Homepage" transform="translate(-329.000000, -1342.000000)" fill="#CC2952">
            <g id="In-need-+-Donation" transform="translate(0.000000, 639.000000)">
                <g id="In-need" transform="translate(315.000000, 101.000000)">
                    <g id="Cards" transform="translate(0.000000, 147.000000)">
                        <g id="Content" transform="translate(0.000000, 220.000000)">
                            <g id="Progress" transform="translate(0.000000, 220.000000)">
                                <g id="Heart" transform="translate(14.000000, 15.000000)">
                                    <path d="M9,17 L8.62976608,16.7340447 L7.91758724,16.2133405 L7.91758724,16.2133405 L7.24244374,15.7071224 C7.13296055,15.6239295 7.02498633,15.5413174 6.91850401,15.4592748 L6.29737609,14.9737609 C6.09620991,14.8141399 5.90087464,14.6567055 5.7112336,14.5013666 L5.15925656,14.0415452 C5.07006195,13.9659257 4.98225674,13.8908072 4.89582384,13.8161785 L4.39355753,13.3741914 C3.58343773,12.6470367 2.90713261,11.9665748 2.34755945,11.3214172 L2.02568673,10.938468 C1.97433036,10.8753189 1.92410714,10.8125 1.875,10.75 L1.59361334,10.3787354 C0.475833637,8.84698433 0.0342451713,7.5002961 0.00193034803,6.16072567 L0,6 L0.00461951385,5.78311038 C0.118181885,3.12230671 2.3112453,1 5,1 C6.63573058,1 8.08800492,1.7854695 9.00022021,2.99980567 C9.91199508,1.7854695 11.3642694,1 13,1 C15.6887547,1 17.8818181,3.12230671 17.9953805,5.78311038 L18,6 C18,7.39285714 17.5688776,8.78571429 16.4063867,10.3787354 L16.125,10.75 C16.0758929,10.8125 16.0256696,10.8753189 15.9743133,10.938468 L15.6524406,11.3214172 C15.0928674,11.9665748 14.4165623,12.6470367 13.6064425,13.3741914 L13.1041762,13.8161785 C13.0177433,13.8908072 12.929938,13.9659257 12.8407434,14.0415452 L12.2887664,14.5013666 C12.1939459,14.5790361 12.0977018,14.6572294 12.0000171,14.735958 L11.3964844,15.2148437 C11.1894531,15.3766741 10.9765226,15.5407366 10.7575563,15.7071224 L10.0824128,16.2133405 L10.0824128,16.2133405 L9.37023392,16.7340447 C9.24840561,16.8220663 9.125,16.9107143 9,17 Z" id="Path"></path>
                                </g>
                            </g>
                        </g>
                    </g>
                </g>
            </g>
        </g>
    </g>
</svg>