<?xml version="1.0" encoding="UTF-8"?>
<svg width="36px" height="40px" viewBox="0 0 36 40" version="1.1" xmlns="http://www.w3.org/2000/svg" xmlns:xlink="http://www.w3.org/1999/xlink">
    <title>BC954EE1-C72A-4A8E-9DBB-FF157239926B</title>
    <g id="Page-1" stroke="none" stroke-width="1" fill="none" fill-rule="evenodd">
        <g id="08.-Projects---Single-item-(Docs)" transform="translate(-370.000000, -1009.000000)">
            <g id="Content" transform="translate(0.000000, 231.000000)">
                <g transform="translate(315.000000, 0.000000)" id="Left-side">
                    <g id="Tab-content" transform="translate(0.000000, 623.000000)">
                        <g transform="translate(0.000000, 74.000000)" id="Attached-file-1">
                            <g id="Icon" transform="translate(55.000000, 81.000000)">
                                <path d="M10,0 L27.3431458,0 C28.4040117,0 29.4214274,0.421427361 30.1715729,1.17157288 L34.8284271,5.82842712 C35.5785726,6.57857264 36,7.59598829 36,8.65685425 L36,36 C36,38.209139 34.209139,40 32,40 L10,40 C7.790861,40 6,38.209139 6,36 L6,4 C6,1.790861 7.790861,0 10,0 Z" id="base" fill="#F6EEED"></path>
                                <g id="pdf-badge" transform="translate(0.000000, 12.000000)">
                                    <path d="M0,6 L27,6 C28.6568542,6 30,7.34314575 30,9 L30,19 C30,20.6568542 28.6568542,22 27,22 L3,22 C1.34314575,22 2.02906125e-16,20.6568542 0,19 L0,6 L0,6 Z" id="Rectangle" fill="#FF5500"></path>
                                    <path d="M3,0 L6,0 L6,0 L6,6 L3,6 C1.34314575,6 2.02906125e-16,4.65685425 0,3 C-2.02906125e-16,1.34314575 1.34314575,3.04359188e-16 3,0 Z" id="Rectangle" fill="#FF5500" opacity="0.600000024"></path>
                                    <path d="M0,3 C0,4.65685425 1.34314575,6 3,6 L0,6 L0,3 Z" id="Path" fill="#FF5500"></path>
                                    <path d="M7.6622,17 L7.6622,10.9972 L10.5002,10.9972 C10.7811333,10.9972 11.0334,11.0445 11.257,11.1391 C11.4806,11.2337 11.6712333,11.3641333 11.8289,11.5304 C11.9865667,11.6966667 12.1084,11.8987667 12.1944,12.1367 C12.2804,12.3746333 12.3234,12.6340667 12.3234,12.915 C12.3234,13.2016667 12.2804,13.4625333 12.1944,13.6976 C12.1084,13.9326667 11.9865667,14.1333333 11.8289,14.2996 C11.6712333,14.4658667 11.4806,14.5963 11.257,14.6909 C11.0334,14.7855 10.7811333,14.8328 10.5002,14.8328 L8.9694,14.8328 L8.9694,17 L7.6622,17 Z M8.9694,13.6976 L10.3454,13.6976 C10.5403333,13.6976 10.6937,13.6474333 10.8055,13.5471 C10.9173,13.4467667 10.9732,13.2991333 10.9732,13.1042 L10.9732,12.7258 C10.9732,12.5308667 10.9173,12.3832333 10.8055,12.2829 C10.6937,12.1825667 10.5403333,12.1324 10.3454,12.1324 L8.9694,12.1324 L8.9694,13.6976 Z M12.9215778,10.9972 L15.1833778,10.9972 C15.5789778,10.9972 15.9401778,11.0602667 16.2669778,11.1864 C16.5937778,11.3125333 16.8718444,11.5003 17.1011778,11.7497 C17.3305111,11.9991 17.5082444,12.3115667 17.6343778,12.6871 C17.7605111,13.0626333 17.8235778,13.4998 17.8235778,13.9986 C17.8235778,14.4974 17.7605111,14.9345667 17.6343778,15.3101 C17.5082444,15.6856333 17.3305111,15.9981 17.1011778,16.2475 C16.8718444,16.4969 16.5937778,16.6846667 16.2669778,16.8108 C15.9401778,16.9369333 15.5789778,17 15.1833778,17 L12.9215778,17 L12.9215778,10.9972 Z M15.1833778,15.839 C15.5732444,15.839 15.8799778,15.7300667 16.1035778,15.5122 C16.3271778,15.2943333 16.4389778,14.9446 16.4389778,14.463 L16.4389778,13.5342 C16.4389778,13.0526 16.3271778,12.7028667 16.1035778,12.485 C15.8799778,12.2671333 15.5732444,12.1582 15.1833778,12.1582 L14.2287778,12.1582 L14.2287778,15.839 L15.1833778,15.839 Z M18.5335556,17 L18.5335556,10.9972 L22.5153556,10.9972 L22.5153556,12.1582 L19.8407556,12.1582 L19.8407556,13.388 L22.1197556,13.388 L22.1197556,14.5404 L19.8407556,14.5404 L19.8407556,17 L18.5335556,17 Z" id="Shape" fill="#F6EEED" fill-rule="nonzero"></path>
                                </g>
                                <path d="M27.3431458,0 C28.4040117,0 29.4214274,0.421427361 30.1715729,1.17157288 L34.8284271,5.82842712 C35.5785726,6.57857264 36,7.59598829 36,8.65685425 L36,11 C36,9.34314575 34.6568542,8 33,8 L31,8 C29.3431458,8 28,6.65685425 28,5 L28,3 C28,1.34314575 26.6568542,0 25,0 L27.3431458,0 Z" id="corner" fill="#E6DEDD"></path>
                            </g>
                        </g>
                    </g>
                </g>
            </g>
        </g>
    </g>
</svg>